# xmcd
#
# Track frame offsets:
#	150
#	13024
#	25171
#	43465
#	54519
#	66281
#	78600
#	90765
#	105181
#	117213
#	129875
#	142852
#	155058
#	164907
#	179071
#	192722
#	204216
#	216019
#	229568
#	243950
#
# Disc length: 3434 seconds
#
# Revision: 2
# Processed by: cddbd v1.5.2PL0 Copyright (c) Steve Scherf et al.
# Submitted via: EZCDAudioConverter 2.1.7.1
#
DISCID=110d6814
DTITLE=V/A - Island Records Presents: Rock Steady 1/2
DYEAR=2013
DGENRE=
TTITLE0=Justin Hinds and The Dominoes - On A Saturday Night
TTITLE1=Hopeton Lewis - Rock Steady
TTITLE2=The Tartans - Dance All Night
TTITLE3=Treasure Isle Boys - Judge Sympathy
TTITLE4=The Uniques - People Get Ready
TTITLE5=Phyllis Dillon - A Thing Of The Past
TTITLE6=Lynn Taitt and The Jets - I Don't Want To See You Cry
TTITLE7=The Uniques - Gypsy Woman
TTITLE8=Keith and Tex - Tonight
TTITLE9=Derrick Harriott - Solomon
TTITLE10=Derrick Morgan - Conquering Ruler
TTITLE11=Lloyd and Devon - Red Bum Ball
TTITLE12=The Viceroys - Lip And Tongue
TTITLE13=Glen Adams - Hold Down Miss Winey
TTITLE14=Keith and Tex - Leaving On That Train
TTITLE15=Derrick Morgan - Gimme Back
TTITLE16=The Consomates - Do It Now
TTITLE17=Pat Kelly - Somebody's Baby
TTITLE18=The Uniques - The Beatitude: Blessed Are The Meek
TTITLE19=Delroy Wilson and Stranger Cole - Once Upon A Time
EXTD=
EXTT0=
EXTT1=
EXTT2=
EXTT3=
EXTT4=
EXTT5=
EXTT6=
EXTT7=
EXTT8=
EXTT9=
EXTT10=
EXTT11=
EXTT12=
EXTT13=
EXTT14=
EXTT15=
EXTT16=
EXTT17=
EXTT18=
EXTT19=
PLAYORDER=
